# xmcd CD database file
#
# Track frame offsets:
#	182
#	22825
#	38912
#	55787
#	66362
#	83875
#	96375
#	114875
#	129775
#	151412
#	167662
#	182162
#	191662
#	207725
#
# Disc length: 2998 seconds
#
# Revision: 0
# Processed by: cddbd v1.5.1PL2 Copyright (c) Steve Scherf et al.
# Submitted via: CDex 1.51
#
DISCID=b90bb40e
DTITLE=Terra - Ekos De Otra Era
DYEAR=1900
DGENRE=New Age
TTITLE0=Carrera a Pluton
TTITLE1=La Vision del Zodiaco
TTITLE2=Paseo Espacial
TTITLE3=La Revolucion de los Selenitas
TTITLE4=Canto a Venus
TTITLE5=Futuro
TTITLE6=Ekos de Otra Era
TTITLE7=Ishtar
TTITLE8=El Grial
TTITLE9=Rosa del Desierto
TTITLE10=E Vuelo de Icaro
TTITLE11=Sendero
TTITLE12=pantanos
TTITLE13=Lusitania
EXTD=
EXTT0=
EXTT1=
EXTT2=
EXTT3=
EXTT4=
EXTT5=
EXTT6=
EXTT7=
EXTT8=
EXTT9=
EXTT10=
EXTT11=
EXTT12=
EXTT13=
PLAYORDER=
